<mxfile host="app.diagrams.net" modified="2024-06-01T10:37:07.700Z" agent="Mozilla/5.0 (X11; Ubuntu; Linux x86_64; rv:126.0) Gecko/20100101 Firefox/126.0" version="24.4.13" etag="-ssgEjfWpAz2fPDkZ87n" type="github">
  <diagram name="Страница — 1" id="SX_5puGfOWlhz5zpd8T5">
    <mxGraphModel>
      <root>
        <mxCell id="0" />
        <mxCell id="1" parent="0" />
      </root>
    </mxGraphModel>
  </diagram>
</mxfile>
